<svg width="69" height="66" viewBox="0 0 69 66" fill="none" xmlns="http://www.w3.org/2000/svg">
<path fill-rule="evenodd" clip-rule="evenodd" d="M34.5 66C53.5538 66 69 51.2254 69 33C69 14.7746 53.5538 0 34.5 0C15.4462 0 0 14.7746 0 33C0.0198206 51.2175 15.4544 65.9811 34.5 66H34.5ZM34.5 54.4981C32.8646 54.4981 31.5388 53.23 31.5388 51.6656C31.5388 50.1013 32.8646 48.8331 34.5 48.8331C36.1355 48.8331 37.4613 50.1013 37.4613 51.6656C37.4613 53.23 36.1355 54.4981 34.5 54.4981V54.4981ZM54.0141 30.1675C55.6467 30.1789 56.9616 31.452 56.9537 33.0137C56.9458 34.5753 55.618 35.8362 53.9854 35.8324C52.3527 35.8287 51.0313 34.5616 51.0312 33C51.0312 32.2451 51.3462 31.5215 51.9062 30.9897C52.4662 30.458 53.225 30.162 54.0141 30.1675ZM34.5 11.5019C36.1355 11.5019 37.4613 12.77 37.4613 14.3344C37.4613 15.8987 36.1355 17.1669 34.5 17.1669C32.8646 17.1669 31.5388 15.8987 31.5388 14.3344C31.5388 12.77 32.8646 11.5019 34.5 11.5019ZM19.9597 19.6144C20.8402 18.7762 22.2633 18.7762 23.1438 19.6144L32.6241 28.6825L32.5666 28.7375C33.6912 28.3207 34.9305 28.2819 36.0812 28.6275L36.0381 28.5863L42.8734 22.0481C43.8658 21.0989 45.4748 21.0989 46.4672 22.0481C47.4596 22.9974 47.4596 24.5364 46.4672 25.4856L39.6319 32.0238L39.5887 31.9825C40.3122 34.1274 39.4826 36.4725 37.5463 37.7565C35.6099 39.0406 33.023 38.9611 31.1769 37.5607C29.3307 36.1603 28.6603 33.7692 29.5262 31.6731L29.4616 31.735L19.9597 22.6875C19.5299 22.2819 19.288 21.7284 19.288 21.1509C19.288 20.5734 19.5299 20.02 19.9597 19.6144H19.9597ZM14.9859 30.1675C16.6214 30.1675 17.9472 31.4357 17.9472 33C17.9472 34.5643 16.6214 35.8325 14.9859 35.8325C13.3505 35.8325 12.0247 34.5643 12.0247 33C12.0247 31.4357 13.3505 30.1675 14.9859 30.1675ZM32.6241 33.5019C32.6241 32.5109 33.464 31.7075 34.5 31.7075C35.5361 31.7075 36.3759 32.5109 36.3759 33.5019C36.3759 34.4929 35.5361 35.2962 34.5 35.2962C33.464 35.2962 32.6241 34.4929 32.6241 33.5019Z" fill="white"/>
</svg>
