<svg width="71" height="66" viewBox="0 0 71 66" fill="none" xmlns="http://www.w3.org/2000/svg">
<path d="M69.3778 42.5769C67.9954 40.1779 64.9302 39.3515 62.5362 40.7338L46.2786 50.0847H32.4802C36.6272 50.0847 39.9929 46.719 39.9929 42.5719C39.9929 41.1896 38.871 40.0677 37.4887 40.0677H14.9504V65.1102H36.4769C39.7375 65.1102 42.9379 64.0333 45.5323 62.075L67.5347 49.4185C69.9287 48.0362 70.7551 44.976 69.3778 42.5769Z" fill="#FF9200"/>
<path d="M0 40.0469H10V65.0469H0V40.0469Z" fill="#FF9200"/>
<path d="M34.9844 35.0595C45.3019 25.6836 55.0184 18.5916 55.0184 11.0187C55.0184 4.84823 50.1702 0 43.9997 0C40.5138 0 37.1681 1.62275 34.9844 4.18711C32.8007 1.62275 29.455 0 25.9691 0C19.7986 0 14.9504 4.84823 14.9504 11.0187C14.9504 18.5916 24.6669 25.7036 34.9844 35.0595Z" fill="#FF9200"/>
</svg>
