<svg width="177" height="87" viewBox="0 0 177 87" fill="none" xmlns="http://www.w3.org/2000/svg">
<path d="M96.529 33.3365H95.833V26.5959H96.529V33.3365Z" fill="white"/>
<path d="M98.8733 28.867C98.8733 28.9769 98.9099 29.1234 98.9099 29.2699C98.9099 29.4165 98.9099 29.5264 98.9099 29.6363H98.9465C99.0564 29.3798 99.2762 29.16 99.5693 29.0135C99.8623 28.867 100.155 28.7571 100.485 28.7571C101.035 28.7571 101.474 28.9403 101.767 29.2699C102.06 29.5996 102.207 30.0392 102.207 30.5887V33.3363H101.548V30.8818C101.548 30.662 101.511 30.4422 101.474 30.259C101.438 30.0759 101.364 29.8927 101.291 29.7828C101.181 29.6363 101.071 29.5264 100.925 29.4531C100.778 29.3798 100.558 29.3432 100.339 29.3432C100.155 29.3432 100.009 29.3798 99.8257 29.4531C99.6792 29.5264 99.5327 29.6363 99.3861 29.7828C99.2762 29.9294 99.1663 30.1125 99.093 30.3323C99.0198 30.5521 98.9832 30.8085 98.9832 31.1016V33.3729H98.3238V29.8927C98.3238 29.7828 98.3238 29.5996 98.3238 29.4165C98.3238 29.2333 98.3238 29.0501 98.2871 28.9036H98.8733V28.867Z" fill="white"/>
<path fill-rule="evenodd" clip-rule="evenodd" d="M106.86 35.6076H106.2V28.867H106.86V29.6363H106.896C107.079 29.3432 107.336 29.1234 107.629 28.9769C107.922 28.8303 108.252 28.7571 108.581 28.7571C108.948 28.7571 109.241 28.8303 109.534 28.9402C109.827 29.0501 110.047 29.2333 110.266 29.4531C110.45 29.6729 110.633 29.8927 110.743 30.1858C110.853 30.4789 110.926 30.7719 110.926 31.1016C110.926 31.4313 110.853 31.7244 110.743 32.0175C110.633 32.3105 110.486 32.567 110.266 32.7501C110.083 32.9699 109.827 33.1165 109.534 33.263C109.241 33.4095 108.948 33.4462 108.581 33.4462C108.252 33.4462 107.959 33.3729 107.629 33.2264C107.336 33.0798 107.079 32.86 106.896 32.567H106.86V35.6076ZM110.157 31.1016C110.157 30.8452 110.12 30.6254 110.047 30.4056C109.973 30.1858 109.864 30.0026 109.717 29.8195C109.57 29.6729 109.387 29.5264 109.204 29.4165C108.984 29.3066 108.765 29.2699 108.471 29.2699C108.215 29.2699 107.995 29.3066 107.775 29.4165C107.556 29.5264 107.372 29.6363 107.226 29.7828C107.079 29.9294 106.969 30.1491 106.86 30.369C106.75 30.5888 106.713 30.8085 106.713 31.065C106.713 31.3214 106.75 31.5412 106.86 31.761C106.969 31.9808 107.079 32.164 107.226 32.3105C107.372 32.457 107.556 32.6036 107.775 32.6769C107.995 32.7868 108.215 32.8234 108.471 32.8234C108.728 32.8234 108.984 32.7868 109.204 32.6769C109.424 32.567 109.607 32.457 109.717 32.3105C109.864 32.164 109.973 31.9442 110.047 31.7244C110.12 31.5779 110.157 31.358 110.157 31.1016Z" fill="white"/>
<path fill-rule="evenodd" clip-rule="evenodd" d="M115.066 30.4422C115.066 30.0759 114.956 29.7828 114.773 29.5996C114.59 29.4165 114.26 29.3066 113.894 29.3066C113.637 29.3066 113.381 29.3432 113.161 29.4531C112.941 29.563 112.721 29.6729 112.575 29.8194L112.209 29.3798C112.392 29.1967 112.648 29.0501 112.941 28.9403C113.234 28.8303 113.601 28.7571 113.967 28.7571C114.223 28.7571 114.443 28.7937 114.626 28.867C114.81 28.9403 115.029 29.0501 115.176 29.16C115.322 29.3066 115.469 29.4531 115.542 29.6729C115.616 29.8927 115.689 30.1125 115.689 30.3689V32.3105C115.689 32.4937 115.689 32.6768 115.725 32.86C115.725 33.0432 115.762 33.1897 115.799 33.3363H115.213C115.176 33.2264 115.176 33.1165 115.176 32.9699C115.176 32.86 115.139 32.7135 115.139 32.6036H115.103C114.883 32.8967 114.663 33.1165 114.407 33.263C114.15 33.4095 113.857 33.4462 113.491 33.4462C113.308 33.4462 113.161 33.4095 112.978 33.3729C112.795 33.3363 112.648 33.263 112.465 33.1531C112.282 33.0432 112.209 32.8967 112.099 32.7501C111.989 32.6036 111.952 32.3838 111.952 32.1274C111.952 31.7977 112.025 31.5046 112.209 31.3214C112.392 31.1383 112.612 30.9551 112.905 30.8818C113.198 30.7719 113.527 30.7353 113.894 30.6987C114.26 30.662 114.663 30.662 115.066 30.662V30.4422ZM114.883 31.1016C114.626 31.1016 114.333 31.1016 114.077 31.1383C113.82 31.1749 113.564 31.2115 113.344 31.2848C113.124 31.358 112.941 31.4313 112.795 31.5779C112.648 31.6878 112.575 31.8709 112.575 32.0907C112.575 32.2373 112.612 32.3838 112.648 32.4937C112.721 32.6036 112.795 32.6768 112.905 32.7501C113.015 32.8234 113.124 32.86 113.234 32.8967C113.344 32.9333 113.491 32.9333 113.601 32.9333C113.82 32.9333 114.04 32.8967 114.223 32.8234C114.407 32.7501 114.553 32.6402 114.663 32.4937C114.773 32.3472 114.883 32.2006 114.956 32.0174C115.029 31.8343 115.066 31.6511 115.066 31.4679V31.1383H114.883V31.1016Z" fill="white"/>
<path d="M117.336 29.3798C117.336 29.1967 117.336 29.0135 117.3 28.867H117.923C117.923 28.9769 117.959 29.1234 117.959 29.2699C117.959 29.4165 117.959 29.5264 117.959 29.6363H117.996C118.106 29.3798 118.326 29.16 118.582 29.0135C118.838 28.867 119.132 28.7571 119.425 28.7571C119.498 28.7571 119.571 28.7571 119.644 28.7571C119.718 28.7571 119.791 28.7937 119.864 28.7937L119.791 29.4165C119.754 29.4165 119.681 29.3798 119.608 29.3798C119.534 29.3798 119.425 29.3432 119.351 29.3432C119.168 29.3432 119.022 29.3798 118.838 29.4531C118.692 29.5264 118.545 29.5996 118.435 29.7462C118.326 29.8927 118.216 30.0392 118.142 30.259C118.069 30.4789 118.032 30.7353 118.032 31.0284V33.2996H117.373V29.8194C117.336 29.7462 117.336 29.563 117.336 29.3798Z" fill="white"/>
<path d="M122.649 29.416H121.404V32.017C121.404 32.2002 121.404 32.3101 121.44 32.42C121.477 32.5299 121.514 32.6031 121.587 32.6764C121.66 32.7496 121.734 32.7863 121.807 32.7863C121.88 32.8229 121.99 32.8229 122.063 32.8229C122.137 32.8229 122.246 32.8229 122.356 32.7863C122.466 32.7496 122.539 32.713 122.649 32.6764L122.686 33.2259C122.576 33.2625 122.466 33.2992 122.32 33.3358C122.21 33.3724 122.063 33.3724 121.917 33.3724C121.807 33.3724 121.66 33.3724 121.55 33.3358C121.44 33.2992 121.294 33.2259 121.184 33.1526C121.074 33.0794 120.964 32.9328 120.891 32.7863C120.818 32.6398 120.781 32.42 120.781 32.2002V29.416H119.865V28.8665H120.781V27.621H121.44V28.8665H122.686V29.416H122.649Z" fill="white"/>
<path d="M124.261 28.867C124.261 28.9769 124.297 29.1234 124.297 29.2699C124.297 29.4165 124.297 29.5264 124.297 29.6363H124.334C124.444 29.3798 124.664 29.16 124.957 29.0135C125.25 28.867 125.543 28.7571 125.873 28.7571C126.422 28.7571 126.862 28.9403 127.155 29.2699C127.448 29.5996 127.595 30.0392 127.595 30.5887V33.3363H126.935V30.8818C126.935 30.662 126.898 30.4422 126.862 30.259C126.825 30.0759 126.752 29.8927 126.679 29.7828C126.569 29.6363 126.459 29.5264 126.312 29.4531C126.166 29.3798 125.946 29.3432 125.726 29.3432C125.543 29.3432 125.396 29.3798 125.213 29.4531C125.067 29.5264 124.92 29.6363 124.774 29.7828C124.664 29.9294 124.554 30.1125 124.481 30.3323C124.407 30.5521 124.371 30.8085 124.371 31.1016V33.3729H123.711V29.8927C123.711 29.7828 123.711 29.5996 123.711 29.4165C123.711 29.2333 123.711 29.0501 123.675 28.9036H124.261V28.867Z" fill="white"/>
<path fill-rule="evenodd" clip-rule="evenodd" d="M133.272 30.9553C133.272 30.9919 133.272 31.0652 133.272 31.1019C133.272 31.1385 133.272 31.2117 133.272 31.2484H129.572C129.572 31.4682 129.609 31.688 129.719 31.8712C129.792 32.0543 129.902 32.2375 130.048 32.384C130.195 32.5305 130.378 32.6405 130.561 32.7137C130.744 32.787 130.964 32.8603 131.184 32.8603C131.514 32.8603 131.807 32.787 132.063 32.6405C132.32 32.4939 132.503 32.3108 132.613 32.091L133.089 32.4573C132.832 32.787 132.539 33.0434 132.21 33.19C131.88 33.3365 131.55 33.4098 131.184 33.4098C130.854 33.4098 130.561 33.3365 130.268 33.2266C129.975 33.1167 129.755 32.9335 129.535 32.7504C129.316 32.5305 129.169 32.3108 129.059 32.0177C128.949 31.7246 128.876 31.4316 128.876 31.1019C128.876 30.7722 128.949 30.4425 129.059 30.186C129.169 29.8929 129.316 29.6365 129.535 29.4534C129.755 29.2335 129.975 29.087 130.268 28.9771C130.525 28.8672 130.854 28.7939 131.147 28.7939C131.514 28.7939 131.807 28.8672 132.063 28.9771C132.32 29.087 132.539 29.2702 132.723 29.4534C132.906 29.6365 133.052 29.8929 133.125 30.1494C133.199 30.3692 133.272 30.6622 133.272 30.9553ZM132.613 30.7722C132.576 30.3692 132.466 30.0028 132.21 29.7464C131.953 29.4533 131.587 29.3434 131.147 29.3434C130.928 29.3434 130.744 29.3801 130.561 29.4534C130.378 29.5266 130.231 29.6365 130.085 29.783C129.938 29.9296 129.828 30.0761 129.755 30.2593C129.682 30.4425 129.609 30.6256 129.609 30.8088H132.613V30.7722Z" fill="white"/>
<path d="M134.627 29.3798C134.627 29.1967 134.627 29.0135 134.591 28.867H135.214C135.214 28.9769 135.25 29.1234 135.25 29.2699C135.25 29.4165 135.25 29.5264 135.25 29.6363H135.287C135.397 29.3798 135.617 29.16 135.873 29.0135C136.129 28.867 136.423 28.7571 136.716 28.7571C136.789 28.7571 136.862 28.7571 136.935 28.7571C137.009 28.7571 137.082 28.7937 137.155 28.7937L137.082 29.4165C137.045 29.4165 136.972 29.3798 136.899 29.3798C136.826 29.3798 136.716 29.3432 136.642 29.3432C136.459 29.3432 136.313 29.3798 136.129 29.4531C135.983 29.5264 135.836 29.5996 135.726 29.7462C135.617 29.8927 135.507 30.0392 135.433 30.259C135.36 30.4789 135.324 30.7353 135.324 31.0284V33.2996H134.664V29.8194C134.664 29.7462 134.664 29.563 134.627 29.3798Z" fill="white"/>
<path d="M140.453 29.9293C140.343 29.7461 140.197 29.5996 140.014 29.4897C139.83 29.3798 139.611 29.3065 139.354 29.3065C139.244 29.3065 139.134 29.3065 139.024 29.3432C138.915 29.3798 138.805 29.4164 138.731 29.4531C138.658 29.5263 138.585 29.5996 138.512 29.6729C138.475 29.7461 138.438 29.856 138.438 30.0026C138.438 30.2224 138.512 30.3689 138.695 30.4788C138.878 30.5887 139.134 30.6986 139.501 30.7719C140.014 30.8818 140.416 31.0283 140.673 31.2481C140.929 31.4679 141.039 31.7244 141.039 32.0907C141.039 32.3471 141.003 32.5669 140.893 32.7501C140.783 32.9333 140.673 33.0798 140.49 33.1897C140.343 33.2996 140.16 33.3729 139.94 33.4461C139.757 33.4828 139.537 33.5194 139.317 33.5194C138.988 33.5194 138.658 33.4461 138.328 33.2996C137.999 33.153 137.742 32.9333 137.559 32.6402L138.072 32.2738C138.182 32.457 138.365 32.6402 138.585 32.7867C138.805 32.9333 139.061 32.9699 139.317 32.9699C139.464 32.9699 139.574 32.9699 139.72 32.9333C139.83 32.8966 139.94 32.86 140.05 32.7867C140.16 32.7135 140.233 32.6402 140.27 32.5303C140.343 32.4204 140.343 32.3105 140.343 32.164C140.343 31.9442 140.233 31.761 140.014 31.6511C139.794 31.5412 139.464 31.4313 139.024 31.3214C138.878 31.2847 138.731 31.2481 138.585 31.2115C138.438 31.1749 138.292 31.1016 138.182 30.9917C138.072 30.8818 137.962 30.7719 137.852 30.662C137.779 30.5154 137.742 30.3323 137.742 30.1491C137.742 29.9293 137.779 29.7095 137.889 29.563C137.999 29.4164 138.109 29.2699 138.255 29.16C138.402 29.0501 138.585 28.9768 138.768 28.9402C138.951 28.9036 139.171 28.8669 139.354 28.8669C139.647 28.8669 139.977 28.9402 140.27 29.0867C140.563 29.2333 140.783 29.4164 140.929 29.6729L140.453 29.9293Z" fill="white"/>
<path d="M142.98 29.5995C143.09 29.3431 143.31 29.1233 143.566 28.9768C143.823 28.8302 144.152 28.757 144.445 28.757C144.995 28.757 145.435 28.9401 145.728 29.2699C146.021 29.5996 146.167 30.0392 146.167 30.5887V33.3362H145.508V30.8817C145.508 30.6619 145.471 30.4421 145.435 30.259C145.398 30.0758 145.325 29.8926 145.251 29.7827C145.142 29.6362 145.032 29.5263 144.885 29.453C144.739 29.3798 144.519 29.3431 144.299 29.3431C144.116 29.3431 143.969 29.3798 143.786 29.453C143.64 29.5263 143.493 29.6362 143.346 29.7827C143.237 29.9293 143.127 30.1124 143.053 30.3322C142.98 30.552 142.944 30.8085 142.944 31.1015V33.3728H142.284V26.156H142.944L142.98 29.5995Z" fill="white"/>
<path fill-rule="evenodd" clip-rule="evenodd" d="M148.659 27.1452C148.659 27.2917 148.622 27.4016 148.512 27.4749C148.402 27.5481 148.329 27.6214 148.182 27.6214C148.036 27.6214 147.963 27.5848 147.853 27.4749C147.743 27.4016 147.706 27.2917 147.706 27.1452C147.706 26.9986 147.743 26.8887 147.853 26.8155C147.963 26.7422 148.036 26.6689 148.182 26.6689C148.329 26.6689 148.402 26.7056 148.512 26.8155C148.622 26.9254 148.659 27.0353 148.659 27.1452ZM148.512 33.3362H147.853V28.8669H148.512V33.3362Z" fill="white"/>
<path fill-rule="evenodd" clip-rule="evenodd" d="M150.893 35.6076H150.234V28.867H150.893V29.6363H150.93C151.113 29.3432 151.37 29.1234 151.663 28.9769C151.956 28.8303 152.285 28.7571 152.615 28.7571C152.981 28.7571 153.274 28.8303 153.568 28.9402C153.861 29.0501 154.08 29.2333 154.3 29.4531C154.483 29.6729 154.667 29.8927 154.776 30.1858C154.886 30.4789 154.96 30.7719 154.96 31.1016C154.96 31.4313 154.886 31.7244 154.776 32.0175C154.667 32.3105 154.52 32.567 154.3 32.7501C154.117 32.9699 153.861 33.1165 153.568 33.263C153.274 33.4095 152.981 33.4462 152.615 33.4462C152.285 33.4462 151.992 33.3729 151.663 33.2264C151.37 33.0798 151.113 32.86 150.93 32.567H150.893V35.6076ZM154.227 31.1016C154.227 30.8452 154.19 30.6254 154.117 30.4056C154.044 30.1858 153.934 30.0026 153.787 29.8195C153.641 29.6729 153.458 29.5264 153.274 29.4165C153.055 29.3066 152.835 29.2699 152.542 29.2699C152.285 29.2699 152.066 29.3066 151.846 29.4165C151.626 29.5264 151.443 29.6363 151.296 29.7828C151.15 29.9294 151.04 30.1491 150.93 30.369C150.82 30.5888 150.783 30.8085 150.783 31.065C150.783 31.3214 150.82 31.5412 150.93 31.761C151.04 31.9808 151.15 32.164 151.296 32.3105C151.443 32.457 151.626 32.6036 151.846 32.6769C152.066 32.7868 152.285 32.8234 152.542 32.8234C152.798 32.8234 153.055 32.7868 153.274 32.6769C153.494 32.567 153.677 32.457 153.787 32.3105C153.934 32.164 154.044 31.9442 154.117 31.7244C154.19 31.5779 154.227 31.358 154.227 31.1016Z" fill="white"/>
<path d="M158.77 28.8669L159.832 32.4937H159.869L161.078 28.8669H161.7L162.909 32.4937H162.946L164.008 28.8669H164.704L163.312 33.3362H162.616L161.444 29.7095H161.407L160.235 33.3362H159.539L158.147 28.8669H158.77Z" fill="white"/>
<path fill-rule="evenodd" clip-rule="evenodd" d="M166.573 27.1452C166.573 27.2917 166.536 27.4016 166.426 27.4749C166.316 27.5481 166.243 27.6214 166.096 27.6214C165.95 27.6214 165.877 27.5848 165.767 27.4749C165.657 27.4016 165.62 27.2917 165.62 27.1452C165.62 26.9986 165.657 26.8887 165.767 26.8155C165.877 26.7422 165.95 26.6689 166.096 26.6689C166.243 26.6689 166.316 26.7056 166.426 26.8155C166.536 26.9254 166.573 27.0353 166.573 27.1452ZM166.426 33.3362H165.767V28.8669H166.426V33.3362Z" fill="white"/>
<path d="M170.162 29.416H168.917V32.017C168.917 32.2002 168.917 32.3101 168.953 32.42C168.99 32.5299 169.026 32.6031 169.1 32.6764C169.173 32.7496 169.246 32.7863 169.32 32.7863C169.393 32.8229 169.503 32.8229 169.576 32.8229C169.649 32.8229 169.759 32.8229 169.869 32.7863C169.979 32.7496 170.052 32.713 170.162 32.6764L170.199 33.2259C170.089 33.2625 169.979 33.2992 169.832 33.3358C169.722 33.3724 169.576 33.3724 169.429 33.3724C169.32 33.3724 169.173 33.3724 169.063 33.3358C168.953 33.2992 168.807 33.2259 168.697 33.1526C168.587 33.0794 168.477 32.9328 168.404 32.7863C168.331 32.6398 168.294 32.42 168.294 32.2002V29.416H167.378V28.8665H168.294V27.621H168.953V28.8665H170.199V29.416H170.162Z" fill="white"/>
<path d="M171.847 29.5995C171.957 29.3431 172.177 29.1233 172.433 28.9768C172.689 28.8302 173.019 28.757 173.312 28.757C173.862 28.757 174.301 28.9401 174.594 29.2699C174.887 29.5996 175.034 30.0392 175.034 30.5887V33.3362H174.375V30.8817C174.375 30.6619 174.338 30.4421 174.301 30.259C174.265 30.0758 174.191 29.8926 174.118 29.7827C174.008 29.6362 173.898 29.5263 173.752 29.453C173.605 29.3798 173.385 29.3431 173.166 29.3431C172.982 29.3431 172.836 29.3798 172.653 29.453C172.506 29.5263 172.36 29.6362 172.213 29.7827C172.103 29.9293 171.993 30.1124 171.92 30.3322C171.847 30.552 171.81 30.8085 171.81 31.1015V33.3728H171.151V26.156H171.81L171.847 29.5995Z" fill="white"/>
<g clip-path="url(#clip0)">
<path fill-rule="evenodd" clip-rule="evenodd" d="M140.466 39.412C140.613 39.4328 140.761 39.4613 140.909 39.4732C142.141 39.5717 143.356 39.7738 144.565 40.021C146.138 40.3426 147.618 40.8994 148.968 41.7825C149.303 42.002 149.648 42.2079 149.98 42.4315C150.257 42.6175 150.413 42.8756 150.394 43.1665C150.563 43.3068 150.724 43.4157 150.855 43.5538C151.47 44.2035 151.793 45.0001 152.006 45.8553C152.26 46.8773 152.448 47.9062 152.354 48.9642C152.339 49.1346 152.243 49.3065 152.153 49.4589C152.072 49.5952 152.082 49.7198 152.201 49.8305C152.254 49.879 152.292 49.9845 152.28 50.0553C152.146 50.8999 152.058 51.7571 151.85 52.5839C150.897 56.3667 148.877 59.4505 145.714 61.7595C144.708 62.4941 143.609 63.0456 142.377 63.2908C141.575 63.4503 140.768 63.5108 139.962 63.3144C139.228 63.1357 138.709 62.6951 138.423 61.9959C138.264 61.6087 138.277 61.2225 138.564 60.8979C138.848 60.577 139.227 60.5024 139.634 60.5932C139.994 60.6734 140.17 60.9422 140.266 61.2729C140.313 61.4383 140.338 61.61 140.383 61.7764C140.558 62.4263 141.043 62.7561 141.717 62.6868C141.793 62.6791 141.868 62.6684 141.968 62.656C141.968 62.3125 141.965 61.9752 141.969 61.6379C141.98 60.5001 141.999 59.3623 142.005 58.2245C142.011 57.3169 142.005 56.4092 141.999 55.5016C141.997 55.0711 141.991 55.0711 141.574 55.0671C140.456 55.0563 139.337 55.0395 138.219 55.0374C137.631 55.0364 137.043 55.0604 136.455 55.0747C136.379 55.0766 136.303 55.0885 136.209 55.0974C136.198 55.3653 136.179 55.6251 136.176 55.885C136.168 56.6011 136.173 57.3174 136.158 58.0333C136.153 58.2736 136.101 58.5128 136.072 58.7526C136.053 58.9039 136.001 59.0609 136.024 59.2056C136.088 59.601 136.196 59.9891 136.262 60.3843C136.297 60.5998 136.33 60.8357 136.279 61.0414C136.172 61.4753 136.139 61.9085 136.146 62.3515C136.158 63.0866 136.157 63.822 136.162 64.5572C136.163 64.7432 136.237 64.9243 136.129 65.115C135.981 65.3743 135.735 65.4331 135.474 65.2864C135.37 65.2281 135.172 65.2186 135.081 65.2807C134.883 65.4163 134.67 65.3965 134.46 65.4267C134.356 65.4417 134.251 65.4515 134.147 65.4636C134.149 65.4809 134.151 65.4982 134.153 65.5155C134.378 65.4945 134.604 65.4811 134.827 65.4507C135.152 65.4065 135.215 65.4251 135.315 65.7479C135.368 65.9212 135.457 65.9522 135.606 65.9202C135.712 65.8975 135.819 65.878 135.921 65.8448C136.126 65.7785 136.16 65.7981 136.162 66.0073C136.166 66.8514 136.165 67.6955 136.176 68.5394C136.193 69.9263 136.206 71.3134 136.247 72.6996C136.257 73.0518 136.34 73.4076 136.433 73.75C136.526 74.0924 136.749 74.34 137.109 74.4483C137.286 74.5018 137.459 74.5783 137.475 74.8127C137.486 74.9781 137.43 75.0997 137.27 75.1326C137.028 75.1827 136.781 75.2372 136.535 75.2387C134.674 75.2494 132.814 75.2487 130.953 75.2477C130.813 75.2476 130.671 75.2289 130.535 75.1988C130.403 75.1697 130.271 75.1186 130.261 74.949C130.25 74.7699 130.266 74.5988 130.455 74.5073C130.535 74.4684 130.617 74.4304 130.701 74.4021C131.041 74.2884 131.232 74.0441 131.336 73.7127C131.484 73.2452 131.448 72.7641 131.455 72.2859C131.457 72.1388 131.455 71.9917 131.455 71.8446C131.456 71.666 131.562 71.56 131.733 71.534C132.077 71.4818 132.419 71.4194 132.762 71.3581C132.842 71.3436 132.92 71.3165 133.004 71.2504C132.816 71.217 132.63 71.1789 132.441 71.1512C132.203 71.1161 131.964 71.0902 131.726 71.0591C131.564 71.0381 131.471 70.9143 131.469 70.7115C131.462 69.9572 131.451 69.2028 131.45 68.4484C131.447 66.594 131.448 64.7395 131.45 62.8851C131.45 62.6987 131.484 62.5113 131.473 62.3261C131.457 62.0688 131.616 61.9528 131.815 61.9001C131.996 61.8524 132.034 61.7602 131.994 61.5555C131.876 61.5841 131.761 61.6191 131.642 61.638C131.584 61.6473 131.52 61.6269 131.459 61.6199C131.483 61.5565 131.491 61.4578 131.536 61.4359C131.694 61.3587 131.861 61.2839 132.033 61.2511C132.886 61.0879 133.742 60.9385 134.597 60.7837C134.627 60.7783 134.656 60.7672 134.685 60.7587L134.693 60.694C134.484 60.664 134.269 60.5858 134.067 60.6124C133.32 60.7113 132.578 60.8451 131.834 60.9649C131.525 61.0145 131.454 60.9259 131.469 60.6118C131.487 60.2234 131.468 59.8333 131.469 59.4439C131.472 58.0565 131.477 56.669 131.48 55.2816C131.48 55.2007 131.465 55.1198 131.455 55.0214C130.555 55.07 129.669 54.8866 128.786 55.093C128.13 55.2463 127.607 55.5981 127.157 56.0827C127.04 56.2091 126.916 56.3294 126.789 56.4462C126.729 56.502 126.659 56.5512 126.586 56.589C126.293 56.7407 126.064 56.6583 126.018 56.3358C125.951 55.8699 125.9 55.3948 125.914 54.9259C125.936 54.2117 126.01 53.4986 126.078 52.7867C126.115 52.4096 126.184 52.3361 126.562 52.2887C126.877 52.2492 127.198 52.2431 127.517 52.2504C128.699 52.2772 129.881 52.3107 131.062 52.3509C132.704 52.4067 134.345 52.4702 135.986 52.5316C136.612 52.555 137.238 52.5677 137.862 52.6143C138.106 52.6324 138.357 52.6998 138.581 52.7982C139.032 52.9967 139.461 53.0107 139.936 52.8538C140.247 52.7509 140.6 52.7705 140.936 52.7482C143.333 52.5884 145.731 52.4322 148.128 52.2739C148.356 52.2588 148.584 52.2375 148.854 52.2157C148.348 49.595 147.092 47.5398 144.684 46.2846L144.687 46.2248C145.728 46.0643 146.77 45.9038 147.812 45.7433L147.807 45.6767C146.587 45.6095 145.365 45.6838 144.143 45.6597C144.469 45.3988 144.876 45.6082 145.223 45.3994C145.081 45.3754 144.94 45.3305 144.798 45.3313C144.383 45.3337 143.967 45.3449 143.553 45.3706C143.176 45.3939 142.813 45.3543 142.463 45.2108C141.374 44.7645 140.217 44.6303 139.065 44.4764C138.957 44.462 138.847 44.4625 138.741 44.4406C138.695 44.4311 138.658 44.3823 138.616 44.3514C138.622 44.328 138.628 44.3046 138.633 44.2812C139.043 44.2317 139.452 44.1757 139.862 44.1345C140.377 44.0828 140.893 44.0337 141.409 44.0031C141.621 43.9904 141.708 43.9055 141.69 43.6696C141.5 43.6886 141.308 43.7042 141.116 43.7276C139.962 43.8683 138.807 44.0045 137.654 44.1571C137.373 44.1944 137.102 44.3114 136.82 44.3487C136.49 44.3923 136.153 44.3889 135.762 44.4089C135.823 44.3107 135.85 44.2683 135.877 44.2256C135.873 44.2214 135.864 44.2068 135.856 44.2068C135.386 44.2088 134.919 44.1762 134.464 44.3776C134.253 44.471 133.989 44.4534 133.747 44.4676C129.87 44.6956 126.106 45.5026 122.416 46.6852C119.36 47.6647 116.413 48.9013 113.602 50.4552C111.549 51.5907 109.602 52.8796 107.859 54.4616C107.449 54.8338 107.402 55.0006 107.611 55.5209C107.831 56.0725 108.066 56.6186 108.278 57.1735C108.345 57.3481 108.37 57.5422 108.391 57.7299C108.416 57.9516 108.411 58.1764 108.427 58.3993C108.443 58.6189 108.544 58.7922 108.747 58.8889C109.005 59.0123 109.148 59.2162 109.255 59.4792C109.666 60.4912 110.092 61.4973 110.52 62.5022C110.58 62.6429 110.577 62.7306 110.444 62.8225C110.137 63.0357 109.826 63.2469 109.539 63.4858C109.253 63.7236 108.995 63.9944 108.743 64.2857C109.007 64.1651 109.275 64.0531 109.534 63.9217C109.804 63.7842 110.08 63.683 110.386 63.6559C110.477 63.6478 110.564 63.5695 110.648 63.5158C110.718 63.4716 110.78 63.4163 110.865 63.3508C110.964 63.5863 111.059 63.8058 111.149 64.0273C111.819 65.6787 112.469 67.339 113.165 68.9794C113.739 70.3336 114.48 71.5942 115.504 72.6683C116.192 73.3889 116.988 73.9568 117.894 74.3728C118.172 74.5005 118.441 74.6484 118.706 74.8009C118.852 74.8847 118.983 74.9988 118.951 75.198C118.92 75.394 118.777 75.4917 118.606 75.5457C118.439 75.5983 118.266 75.6307 118.096 75.6721H114.911C114.551 75.6339 114.191 75.6041 113.832 75.5557C113.107 75.4578 112.368 75.4361 111.683 75.1277C109.986 74.3632 108.658 73.1878 107.746 71.564C107.462 71.0585 107.248 70.5143 106.988 69.9945C106.903 69.8232 106.96 69.7018 107.063 69.5804C107.103 69.5325 107.165 69.503 107.209 69.4573C107.291 69.3716 107.452 69.2387 107.432 69.1985C107.352 69.0383 107.195 69.1572 107.076 69.172C106.706 69.2178 106.65 69.1943 106.502 68.8576C105.441 66.4357 104.379 64.014 103.316 61.5925C103.292 61.5384 103.263 61.4869 103.214 61.391C103.229 61.6668 103.253 61.8894 103.251 62.1115C103.229 63.9137 103.203 65.7158 103.175 67.5179C103.158 68.5658 103.136 69.6136 103.11 70.6612C103.107 70.7485 103.082 70.8712 103.022 70.9142C102.85 71.0375 102.656 71.1327 102.467 71.2306C102.275 71.3303 102.075 71.4154 101.883 71.5169C101.826 71.5471 101.787 71.6112 101.74 71.6597C101.957 71.6798 102.163 71.5542 102.333 71.7477C102.342 71.7577 102.37 71.7486 102.389 71.7519C102.552 71.7807 102.676 71.7051 102.81 71.623C103.01 71.5008 103.103 71.558 103.114 71.7803C103.12 71.9144 103.121 72.0488 103.133 72.1824C103.184 72.7847 103.277 73.3778 103.602 73.9036C103.789 74.2052 104.025 74.4332 104.41 74.4852C104.791 74.5366 104.948 74.9536 104.721 75.2429C104.603 75.3928 104.436 75.3989 104.268 75.4022C103.016 75.4269 101.764 75.4603 100.512 75.4711C99.1308 75.483 97.7496 75.4761 96.3685 75.4714C96.1586 75.4707 95.9468 75.4499 95.7396 75.4157C95.555 75.3852 95.326 75.3717 95.272 75.148C95.2141 74.908 95.3809 74.7423 95.5503 74.5969C95.584 74.5679 95.6252 74.5477 95.6599 74.5196C95.8085 74.3989 95.9722 74.2912 96.0984 74.1502C96.1913 74.0465 96.2666 73.9045 96.293 73.7686C96.3428 73.5128 96.3651 73.2495 96.3751 72.9884C96.4172 71.8968 96.455 70.8049 96.4855 69.7129C96.513 68.7356 96.5247 67.7578 96.5565 66.7806C96.5598 66.6796 96.6285 66.5278 96.709 66.4907C97.2536 66.2392 97.8047 65.9999 98.364 65.7832C98.5952 65.6937 98.4854 65.5404 98.4856 65.4073C98.4859 65.2625 98.3831 65.256 98.2689 65.2751C97.8672 65.3423 97.4579 65.3842 97.1199 65.6481C97.0952 65.6675 97.0641 65.6791 97.035 65.6922C96.8295 65.785 96.6844 65.7506 96.6251 65.5359C96.5656 65.3205 96.5566 65.0863 96.5577 64.8605C96.5585 64.6887 96.6478 64.5578 96.8342 64.4968C97.198 64.3778 97.5581 64.2466 97.9148 64.1078C98.0189 64.0673 98.1063 63.984 98.2013 63.9203L98.1822 63.8296C98.0377 63.8209 97.8892 63.7875 97.7495 63.8095C97.5554 63.8401 97.3696 63.92 97.177 63.9648C96.7808 64.0569 96.6069 63.9924 96.6049 63.5468C96.5988 62.2559 96.5932 60.9649 96.5734 59.6741C96.568 59.3251 96.6104 59.0177 96.9326 58.8156C96.9409 58.8104 96.9412 58.7927 96.9573 58.7456C96.894 58.7232 96.8276 58.6764 96.7673 58.6833C96.6503 58.6966 96.5697 58.669 96.559 58.5496C96.5463 58.4073 96.5062 58.2355 96.6817 58.1636C96.9222 58.065 97.1708 57.9853 97.4189 57.9066C98.1128 57.6864 98.8105 57.4779 99.5015 57.2493C99.7219 57.1764 99.9262 57.0548 100.138 56.9555L100.118 56.9119C99.3362 57.1229 98.5564 57.3423 97.7714 57.541C97.4451 57.6236 97.1086 57.6679 96.7751 57.7177C96.6116 57.742 96.5389 57.6436 96.5527 57.4869C96.5593 57.412 96.585 57.3388 96.6027 57.265C96.632 57.1438 96.6801 57.024 96.6883 56.9015C96.7256 56.34 96.5933 55.7629 96.8599 55.2212C96.8868 55.1665 96.8388 55.0158 96.787 54.9915C96.4843 54.8491 96.553 54.612 96.589 54.3675C96.6333 54.0658 96.6833 53.7615 96.6868 53.4579C96.6974 52.5182 96.6964 51.5781 96.6823 50.6384C96.6703 49.8339 96.6516 49.0286 96.6018 48.2258C96.574 47.778 96.4404 47.3459 96.1892 46.9628C96.0261 46.7139 95.8155 46.5094 95.5087 46.4803C95.308 46.4613 95.1539 46.3996 95.0352 46.2419V46.0117C95.1519 45.8677 95.3061 45.7993 95.488 45.8054C95.756 45.8144 96.0236 45.835 96.2915 45.8468C97.1019 45.8824 97.9121 45.9349 98.7229 45.9453C99.4763 45.955 100.23 45.9109 100.984 45.9111C101.106 45.9112 101.253 45.9927 101.344 46.0817C101.523 46.2573 101.645 46.2817 101.826 46.0996C101.94 45.9847 102.046 45.8824 102.224 45.9678C102.246 45.9785 102.284 45.9607 102.314 45.9528C102.43 45.922 102.544 45.8709 102.661 45.8614C103.393 45.8019 104.126 45.7548 104.857 45.6962C105.053 45.6806 105.211 45.7699 105.25 45.947C105.292 46.1376 105.19 46.2998 104.989 46.349C104.803 46.3944 104.612 46.4201 104.429 46.4758C103.386 46.7945 102.794 47.6014 102.845 48.6019C102.88 49.2909 102.906 49.9806 102.919 50.6703C102.945 52.0631 102.959 53.4562 102.978 54.8491C102.979 54.9281 102.986 55.007 102.992 55.1088C103.048 55.0717 103.076 55.0566 103.1 55.0372C105.393 53.193 107.793 51.4958 110.255 49.8872C113.84 47.5457 117.554 45.4403 121.485 43.7308C125.45 42.0062 129.523 40.6198 133.79 39.8545C135.157 39.6095 136.533 39.4513 137.925 39.4594C138.094 39.4604 138.263 39.4286 138.432 39.412C139.11 39.412 139.788 39.412 140.466 39.412ZM146.646 55.012C146.671 56.71 146.696 58.3649 146.72 60.0198C147.901 58.5542 148.531 56.883 148.733 55.012H146.646Z" fill="white"/>
<path d="M176.035 68.8423C175.895 69.379 175.77 69.92 175.611 70.451C175.496 70.8353 175.335 71.2059 175.196 71.5833C175.152 71.7045 175.076 71.7652 174.941 71.7692C174.315 71.7876 173.689 71.8286 173.064 71.8318C171.548 71.8396 170.033 71.8395 168.518 71.8265C166.575 71.8098 164.632 71.7775 162.69 71.7516C162.396 71.7476 162.101 71.7542 161.809 71.7288C161.712 71.7203 161.567 71.6463 161.54 71.5686C161.499 71.4516 161.506 71.2891 161.558 71.175C161.618 71.0408 161.747 70.9372 161.847 70.8212C162.452 70.1204 162.765 69.3119 162.753 68.3815C162.748 67.9856 162.753 67.5895 162.753 67.1783C163.084 67.0975 163.413 67.0172 163.743 66.9369C163.74 66.9299 163.737 66.9229 163.733 66.9159C163.528 66.9159 163.323 66.9232 163.118 66.9124C163.033 66.9079 162.94 66.8808 162.87 66.8342C162.816 66.7984 162.767 66.716 162.767 66.654C162.767 66.6166 162.86 66.5724 162.917 66.5423C163.085 66.4545 163.263 66.4497 163.45 66.4591C163.651 66.4693 163.829 66.3893 163.972 66.2141C163.729 66.2482 163.487 66.292 163.243 66.3122C163.117 66.3226 162.984 66.3026 162.86 66.2722C162.817 66.2617 162.791 66.1788 162.758 66.1288C162.807 66.0973 162.853 66.0448 162.905 66.0373C163.289 65.9823 163.68 65.9599 164.058 65.8786C164.288 65.8292 164.499 65.6921 164.721 65.5977C164.769 65.577 164.824 65.5727 164.874 65.5564C164.971 65.5253 165.066 65.4909 165.162 65.4579C165.156 65.4321 165.15 65.4062 165.144 65.3804C164.359 65.4613 163.574 65.5422 162.758 65.6262C162.746 65.3327 162.73 65.0934 162.728 64.8539C162.721 63.8182 162.718 62.7825 162.714 61.7467C162.709 60.206 162.702 58.6652 162.703 57.1245C162.703 56.8122 162.736 56.4996 162.761 56.1877C162.776 56.013 162.829 55.8844 163.044 55.8385C163.17 55.8117 163.27 55.6658 163.379 55.5762C163.163 55.5627 162.932 55.5483 162.692 55.5333C162.676 55.3995 162.665 55.28 162.647 55.1617C162.567 54.6512 162.353 54.2154 161.944 53.8837C161.811 53.7753 161.687 53.6535 161.566 53.5313C161.447 53.4108 161.375 53.2714 161.463 53.0997C161.56 52.9113 161.684 52.7507 161.915 52.729C162.042 52.7171 162.17 52.7213 162.298 52.7207C163.468 52.7157 164.638 52.7219 165.808 52.7022C166.427 52.6917 167.045 52.6408 167.663 52.5993C167.943 52.5806 168.209 52.5972 168.463 52.7341C168.689 52.8562 168.925 52.8689 169.156 52.7304C169.227 52.6879 169.308 52.6614 169.379 52.6188C169.597 52.4877 169.803 52.4845 170.025 52.6249C170.114 52.6811 170.243 52.6905 170.355 52.6921C171.428 52.7072 172.502 52.7186 173.576 52.7246C173.803 52.7259 173.965 52.8226 174.04 53.0262C174.107 53.21 174.166 53.4056 174.179 53.5993C174.228 54.3005 174.261 55.0027 174.287 55.705C174.3 56.048 174.16 56.1562 173.838 56.029C173.659 55.9582 173.479 55.8256 173.362 55.673C173.12 55.3564 172.821 55.1658 172.429 55.1452C170.845 55.0619 169.26 55.0768 167.677 55.185C167.658 55.1863 167.639 55.188 167.62 55.1903C167.288 55.2307 167.29 55.2308 167.286 55.5599C167.276 56.4866 167.265 57.4133 167.254 58.3401C167.254 58.378 167.25 58.4159 167.247 58.4645C166.558 58.6127 165.871 58.7604 165.184 58.9082L165.193 58.9784C165.321 58.9784 165.449 58.9804 165.577 58.978C166.062 58.9692 166.548 58.9643 167.033 58.9463C167.211 58.9397 167.261 59.0019 167.258 59.1772C167.252 59.714 167.263 60.251 167.268 60.7878C167.271 61.0848 167.324 61.1493 167.629 61.1464C168.907 61.1344 170.184 61.1153 171.462 61.0962C171.676 61.093 171.856 61.0082 172.002 60.8456C172.158 60.6707 172.306 60.4564 172.595 60.602C172.802 60.7067 172.917 61.0278 172.836 61.3328C172.758 61.6286 172.659 61.9192 172.561 62.2096C172.482 62.4451 172.389 62.676 172.308 62.9106C172.2 63.2209 172.003 63.3227 171.696 63.2036C171.586 63.1607 171.465 63.1018 171.391 63.0143C171.226 62.8174 171.013 62.7404 170.775 62.6993C169.945 62.5548 169.108 62.5712 168.271 62.6137C168.003 62.6273 167.736 62.6582 167.468 62.6743C167.308 62.684 167.249 62.7615 167.253 62.9188C167.272 63.5766 167.287 64.2346 167.299 64.8927C167.309 65.3591 167.326 65.8262 167.309 66.2919C167.304 66.43 167.213 66.5789 167.126 66.6976C166.9 67.0073 166.904 67.0686 167.187 67.3108C167.246 67.3616 167.296 67.4554 167.302 67.5327C167.329 67.9405 167.333 68.3498 167.36 68.7576C167.394 69.2589 167.472 69.3297 167.971 69.3785C169.152 69.4939 170.335 69.4906 171.514 69.3985C172.321 69.3356 173.123 69.2035 173.924 69.08C174.364 69.0121 174.737 68.7892 175.055 68.4738C175.154 68.3749 175.261 68.2816 175.373 68.1971C175.639 67.9962 175.842 68.0321 176.035 68.305V68.8423Z" fill="white"/>
<path d="M115.796 66.1198C115.693 66.0442 115.589 65.9594 115.476 65.8896C115.434 65.8634 115.37 65.8661 115.316 65.8657C115.051 65.8635 114.785 65.8647 114.493 65.8647C114.515 65.777 114.532 65.7184 114.545 65.6591C114.553 65.6228 114.572 65.5601 114.558 65.552C114.357 65.4261 114.457 65.2295 114.455 65.0699C114.446 63.9574 114.444 62.8448 114.454 61.7323C114.457 61.3626 114.422 61.0033 114.283 60.6616C114.094 60.1949 114.117 59.7481 114.323 59.2884C114.409 59.0979 114.435 58.871 114.446 58.6586C114.481 57.9569 114.516 57.2541 114.513 56.552C114.511 56.1915 114.453 55.8257 114.375 55.4726C114.268 54.9904 114.007 54.6317 113.49 54.4908C113.144 54.3965 113.049 54.1124 113.214 53.7939C113.364 53.5055 113.569 53.363 113.929 53.3677C115.207 53.3844 116.486 53.3596 117.764 53.3506C118.467 53.3457 119.17 53.3331 119.874 53.338C121.293 53.3481 122.712 53.3602 124.13 53.387C124.713 53.3981 124.862 53.5032 124.903 54.0583C124.955 54.7757 124.948 55.4997 124.924 56.2194C124.91 56.6086 124.704 56.6998 124.346 56.5323C124.22 56.4734 124.096 56.3979 123.991 56.3073C123.527 55.9071 122.992 55.7396 122.383 55.7549C121.482 55.7776 120.582 55.7818 119.681 55.7944C119.643 55.795 119.605 55.8023 119.566 55.804C119.375 55.8123 119.298 55.8936 119.3 56.1029C119.317 57.8544 119.321 59.6061 119.33 61.3577C119.332 61.6096 119.409 61.7064 119.635 61.7034C120.971 61.6856 122.306 61.6617 123.642 61.6405C124.005 61.6348 124.306 61.4756 124.586 61.2636C124.754 61.1363 124.933 61.0505 125.153 61.088C125.374 61.1257 125.484 61.2291 125.457 61.4506C125.423 61.7283 125.356 62.0024 125.293 62.2759C125.212 62.6307 125.119 62.9828 125.035 63.3369C124.908 63.8679 124.564 64.0222 124.094 63.7492C123.968 63.6757 123.834 63.5997 123.737 63.4936C123.459 63.1873 123.093 63.0999 122.714 63.0933C121.929 63.0798 121.143 63.0931 120.358 63.104C120.109 63.1074 119.861 63.1438 119.612 63.1539C119.505 63.1583 119.472 63.2032 119.459 63.3017C119.44 63.4489 119.452 63.6335 119.368 63.7325C119.127 64.0168 118.881 64.3011 118.499 64.4299C117.975 64.6071 117.426 64.5726 116.892 64.6591C116.641 64.6998 116.389 64.7314 116.138 64.7927C117.184 65.0347 118.242 65.0591 119.284 64.9686C119.309 65.0301 119.318 65.0417 119.318 65.0535C119.311 66.2166 119.301 67.3799 119.297 68.5432C119.297 68.7592 119.306 68.9787 119.343 69.1908C119.387 69.4403 119.528 69.5306 119.779 69.5269C120.418 69.5174 121.057 69.5004 121.696 69.5034C122.661 69.5079 123.626 69.5304 124.591 69.5363C124.752 69.5372 124.799 69.5997 124.763 69.7505C124.928 69.7936 125.01 69.6952 125.109 69.6161C125.193 69.5489 125.295 69.4785 125.397 69.4632C126.142 69.3516 126.838 69.1401 127.433 68.6451C127.63 68.481 127.872 68.3598 128.112 68.2621C128.376 68.1543 128.583 68.3031 128.608 68.588C128.618 68.701 128.623 68.8243 128.589 68.9297C128.305 69.8044 128.019 70.6783 127.719 71.5474C127.599 71.8965 127.574 71.9021 127.204 71.8925C126.188 71.8661 125.173 71.8312 124.157 71.8062C124.039 71.8034 123.907 71.8159 123.803 71.8657C123.424 72.0468 123.016 72.0746 122.61 72.1187C122.43 72.1384 122.275 72.1229 122.184 71.9207C122.125 71.789 121.99 71.7146 121.846 71.7824C121.426 71.9807 120.982 71.92 120.545 71.9156C119.171 71.9016 117.797 71.8756 116.423 71.8557C115.894 71.848 115.886 71.8553 115.578 71.4323C115.24 70.9673 114.909 70.4965 114.595 70.0149C114.511 69.8857 114.462 69.708 114.463 69.5531C114.471 68.7163 114.5 67.8797 114.52 67.0429C114.523 66.9409 114.515 66.8386 114.512 66.7365C114.503 66.4899 114.583 66.3811 114.821 66.3288C115.156 66.2551 115.491 66.1851 115.796 66.1198Z" fill="white"/>
<path d="M156.171 68.187C156.08 68.1772 155.988 68.1624 155.896 68.1584C155.61 68.146 155.323 68.1295 155.036 68.1321C154.932 68.1331 154.829 68.1879 154.723 68.2097C154.631 68.2286 154.536 68.2511 154.445 68.2437C154.347 68.2358 154.3 68.173 154.301 68.058C154.31 67.3995 154.298 66.7406 154.317 66.0826C154.325 65.8387 154.389 65.5946 154.444 65.3544C154.478 65.2061 154.543 65.0649 154.595 64.9207C154.684 64.6761 154.641 64.4725 154.463 64.2689C154.368 64.1607 154.306 63.9851 154.305 63.8393C154.288 62.1066 154.286 60.3739 154.28 58.6412C154.279 58.3986 154.319 58.3436 154.557 58.32C155.097 58.2663 155.638 58.2343 156.177 58.1714C156.83 58.0951 157.481 57.9966 158.132 57.9058C158.187 57.8983 158.239 57.8769 158.262 57.8705C157.948 57.8705 157.606 57.8958 157.269 57.8656C156.382 57.7858 155.499 57.8909 154.614 57.9054C154.448 57.9081 154.323 57.7931 154.314 57.629C154.303 57.4575 154.301 57.2855 154.298 57.1137C154.279 56.1168 154.276 55.1193 154.234 54.1235C154.22 53.7837 154.133 53.441 154.037 53.112C153.908 52.6693 153.597 52.3888 153.147 52.2684C153.005 52.2305 152.864 52.1913 152.725 52.1438C152.561 52.0879 152.521 51.9597 152.557 51.8047C152.605 51.6068 152.846 51.4218 153.05 51.422C155.326 51.4238 157.602 51.4243 159.879 51.4306C160.127 51.4313 160.378 51.4492 160.622 51.4935C160.713 51.5101 160.839 51.6154 160.853 51.6972C160.868 51.7805 160.781 51.8995 160.709 51.9751C160.646 52.0406 160.547 52.0788 160.458 52.1092C159.677 52.3741 159.278 52.9735 159.125 53.7307C159.018 54.2586 158.98 54.8073 158.974 55.3474C158.952 57.1951 158.959 59.0432 158.954 60.8911C158.953 61.2727 158.943 61.2801 158.565 61.3759C158.442 61.4072 158.324 61.459 158.203 61.5013C158.205 61.5234 158.207 61.5455 158.208 61.5676C158.282 61.5943 158.358 61.6169 158.429 61.6485C158.564 61.7079 158.761 61.7381 158.816 61.8419C158.925 62.0479 158.962 62.3088 158.834 62.5245C158.735 62.6924 158.734 62.8465 158.778 63.0141C158.841 63.2479 158.929 63.4759 158.977 63.7123C159.018 63.9167 159.034 64.1292 159.035 64.3382C159.042 65.892 159.034 67.446 159.047 68.9998C159.056 70.1116 159.077 71.2238 159.121 72.3346C159.135 72.6608 159.222 72.9908 159.321 73.3046C159.415 73.6018 159.638 73.7732 159.974 73.767C161.002 73.7479 162.031 73.7436 163.059 73.7149C163.902 73.6914 164.745 73.652 165.587 73.5995C166.185 73.5623 166.696 73.3353 167.068 72.8348C167.175 72.6906 167.326 72.5673 167.479 72.4707C167.754 72.2981 168.069 72.4726 168.052 72.7956C168.041 72.9851 167.984 73.1936 167.884 73.3529C167.434 74.0666 166.964 74.7675 166.492 75.4668C166.452 75.5264 166.346 75.5701 166.269 75.5719C165.572 75.5879 164.876 75.5985 164.179 75.5998C163.303 75.6015 162.427 75.5924 161.551 75.5887C158.955 75.5779 156.359 75.567 153.763 75.5571C153.431 75.5558 153.099 75.5637 152.766 75.5618C152.499 75.5603 152.397 75.429 152.452 75.1671C152.496 74.952 152.627 74.8013 152.811 74.693C152.882 74.651 152.957 74.6071 153.036 74.5879C153.616 74.4465 153.902 74.0268 154.003 73.4894C154.11 72.9207 154.187 72.3411 154.213 71.7633C154.259 70.7614 154.257 69.7572 154.272 68.754C154.274 68.6166 154.314 68.5636 154.469 68.5424C154.996 68.4708 155.519 68.3708 156.043 68.2788C156.089 68.2707 156.131 68.2419 156.175 68.2226C156.174 68.2108 156.172 68.1989 156.171 68.187Z" fill="white"/>
<path d="M145.758 65.7417C145.083 65.847 144.411 65.9697 143.734 66.0516C143.235 66.1119 142.729 66.1186 142.226 66.1496C142.053 66.1603 142 66.047 141.998 65.9074C141.991 65.55 141.998 65.1924 141.994 64.835C141.99 64.5348 141.98 64.2346 141.97 63.9345C141.967 63.8398 141.964 63.7596 142.094 63.743C143.196 63.6021 144.195 63.1747 145.161 62.6468C145.657 62.375 146.162 62.1187 146.682 61.8459C146.682 61.9075 146.682 61.9742 146.682 62.0411C146.682 63.8827 146.682 65.7242 146.682 67.5658C146.682 67.6233 146.681 67.681 146.678 67.7383C146.661 68.0596 146.533 68.1591 146.222 68.0972C146.174 68.0876 146.124 68.0883 146.075 68.0841C146.053 68.2018 146.034 68.3058 146.014 68.4182C146.203 68.4711 146.399 68.5157 146.586 68.5853C146.633 68.6026 146.674 68.7002 146.675 68.7619C146.685 69.1964 146.676 69.6315 146.69 70.066C146.721 71.0875 146.719 72.1137 146.956 73.1157C147.023 73.398 147.137 73.6747 147.267 73.9347C147.396 74.1907 147.616 74.3553 147.92 74.3762C147.977 74.3801 148.034 74.3968 148.088 74.4141C148.23 74.4591 148.404 74.4659 148.401 74.6835C148.398 74.9521 148.319 75.0876 148.081 75.1326C147.864 75.1737 147.639 75.1882 147.417 75.1908C145.289 75.2155 143.16 75.2376 141.032 75.2505C140.889 75.2514 140.712 75.21 140.608 75.1213C140.379 74.9246 140.505 74.5417 140.827 74.4977C141.396 74.4201 141.652 74.0231 141.793 73.5566C141.925 73.1209 142 72.6584 142.029 72.2032C142.069 71.5734 142.041 70.9394 142.043 70.3073C142.043 70.1606 142.043 70.014 142.043 69.821C142.407 69.7339 142.774 69.6461 143.141 69.5583C143.139 69.5522 143.138 69.5462 143.136 69.5402C142.871 69.5402 142.607 69.5388 142.343 69.5405C142.11 69.5421 142.018 69.4705 142.022 69.2393C142.035 68.4406 142.057 67.6421 142.082 66.8438C142.084 66.7915 142.126 66.7293 142.168 66.6914C142.39 66.4888 142.679 66.4686 142.955 66.4277C143.53 66.3425 144.109 66.2865 144.682 66.1917C144.95 66.1472 145.21 66.0469 145.469 65.9584C145.579 65.9208 145.677 65.8486 145.781 65.7922C145.773 65.7754 145.765 65.7585 145.758 65.7417Z" fill="white"/>
<path d="M152.339 52.657C152.357 52.9533 152.372 53.2499 152.393 53.5461C152.455 54.4305 152.52 55.3147 152.583 56.1991C152.598 56.4048 152.624 56.6263 152.407 56.7455C152.18 56.8705 151.923 56.8807 151.721 56.7126C151.512 56.5398 151.34 56.3221 151.161 56.1165C151.135 56.0862 151.14 56.0045 151.16 55.9613C151.657 54.9337 151.98 53.8465 152.268 52.7471C152.276 52.7169 152.286 52.6872 152.295 52.6573C152.31 52.6572 152.325 52.6571 152.339 52.657Z" fill="white"/>
<path fill-rule="evenodd" clip-rule="evenodd" d="M169.927 74.4443C169.443 74.4482 169.086 74.0674 169.086 73.5468C169.086 73.0922 169.444 72.7357 169.901 72.736C170.38 72.7363 170.727 73.1054 170.733 73.6215C170.739 74.0716 170.377 74.4407 169.927 74.4443ZM170.633 73.5718C170.637 73.2095 170.309 72.8969 169.922 72.8932C169.525 72.8894 169.178 73.226 169.177 73.6154C169.177 73.9637 169.529 74.2885 169.906 74.2875C170.296 74.2865 170.628 73.9589 170.633 73.5718Z" fill="white"/>
<path fill-rule="evenodd" clip-rule="evenodd" d="M170.093 73.5769C170.174 73.6957 170.256 73.8145 170.341 73.9382C170.062 73.9957 170.041 73.7116 169.9 73.5906L169.842 73.6149C169.856 73.7186 169.87 73.8224 169.886 73.933H169.616C169.73 73.6704 169.697 73.4016 169.635 73.1063C169.724 73.1063 169.826 73.0894 169.919 73.1109C170.022 73.1345 170.165 73.1698 170.202 73.2438C170.24 73.3224 170.174 73.4523 170.153 73.5597C170.133 73.5654 170.113 73.5712 170.093 73.5769ZM169.85 73.5177C170.021 73.5321 170.069 73.4465 170.06 73.3204C170.051 73.2023 169.983 73.1538 169.85 73.1881V73.5177Z" fill="white"/>
<path d="M169.85 73.5183V73.1888C169.983 73.1545 170.051 73.2029 170.06 73.3211C170.069 73.4472 170.021 73.5328 169.85 73.5183Z" fill="white"/>
</g>
<g clip-path="url(#clip1)">
<path d="M86.6382 43.3008C86.6382 67.2224 67.2591 86.6016 43.3374 86.6016C19.4157 86.6016 0 67.2224 0 43.3008C0 19.3791 19.3791 0 43.3008 0C67.2224 0 86.6382 19.3791 86.6382 43.3008Z" fill="#FF9200"/>
<path d="M36.4865 34.1063C34.6915 34.1063 33.9954 33.1538 33.9588 31.432V24.4717H32.8598V22.7865H33.9588V18.94H36.1934V22.8232H37.8786V24.5083H36.1934V30.9924C36.1934 31.7984 36.3033 32.2746 37.1093 32.2746C37.3291 32.2746 37.6588 32.2379 37.8419 32.2013V33.9964C37.2924 34.0696 36.9994 34.1063 36.4865 34.1063Z" fill="white"/>
<path d="M44.2899 21.7601C45.279 21.7601 45.9017 22.6027 45.9017 23.5552V33.0432H43.6671V24.7274C43.6671 24.068 43.5938 23.6284 42.8978 23.6284C42.275 23.6284 41.7988 23.9581 41.4324 24.2878V33.0799H39.1978V17.474H41.4324V23.1156C42.2017 22.4195 42.9711 21.7601 44.2899 21.7601Z" fill="white"/>
<path d="M50.9574 32.5676C52.0931 32.5676 52.0931 31.4686 52.0931 30.3329H54.2911C54.2911 32.8973 53.3752 34.3627 50.9574 34.3627C47.9169 34.3627 47.6238 31.5419 47.6238 28.3914C47.6238 25.3874 48.0634 22.933 50.9574 22.933C53.8515 22.933 54.2911 25.3874 54.2911 28.3914V28.6478H49.8584V29.1973C49.8584 30.5161 49.7119 32.5676 50.9574 32.5676Z" fill="white"/>
<path d="M22.6023 31.468C23.5547 31.468 24.0676 31.5413 25.0567 31.6512V34.5818C24.6538 34.5452 24.1043 34.4353 23.7379 34.4353C22.3092 34.4353 22.0894 35.4977 22.0894 36.8898V38.3551H25.0567V41.3224H22.0894V58.1372H18.133V41.3224H16.1548V38.3551H18.133V37.5858C18.133 33.8125 18.7558 31.468 22.6023 31.468Z" fill="white"/>
<path d="M32.0904 52.5692C34.0686 52.5692 34.0686 50.591 34.0686 48.6128H38.025C38.025 53.1553 36.3765 55.8296 32.0904 55.8296C26.7053 55.8296 26.1558 50.8108 26.1558 45.2059C26.1558 39.8574 26.9251 35.498 32.0904 35.498C37.2557 35.498 38.025 39.8574 38.025 45.2059V45.6821H30.1122V46.6712C30.1122 48.9425 29.8924 52.5692 32.0904 52.5692Z" fill="white"/>
<path d="M46.1584 55.7562C48.1366 55.7562 48.1366 53.778 48.1366 51.7998H52.093C52.093 56.3424 50.4445 59.0166 46.1584 59.0166C40.7733 59.0166 40.2238 53.9978 40.2238 48.3929C40.2238 43.0444 40.9931 38.685 46.1584 38.685C51.3237 38.685 52.093 43.0444 52.093 48.3929V48.8691H44.1802V49.8582C44.1802 52.0928 43.9238 55.7562 46.1584 55.7562Z" fill="white"/>
<path d="M63.1928 38.7944V28.94H67.1492V56.5983H63.1928V54.8033C62.2769 55.7557 61.0314 56.8913 59.2364 56.8913C55.2799 56.8913 54.2908 51.6894 54.2908 47.6964C54.2908 42.531 54.2176 36.5598 59.1631 36.5598C61.0314 36.5231 62.167 37.6954 63.1928 38.7944Z" fill="white"/>
</g>
<defs>
<clipPath id="clip0">
<rect width="81.0001" height="36.2601" fill="white" transform="translate(95.0352 39.412)"/>
</clipPath>
<clipPath id="clip1">
<rect width="86.6382" height="86.6016" fill="white"/>
</clipPath>
</defs>
</svg>
