<svg width="22" height="26" viewBox="0 0 22 26" fill="none" xmlns="http://www.w3.org/2000/svg">
<path fill-rule="evenodd" clip-rule="evenodd" d="M21.1841 6.7363H21.1391C21.1391 6.48625 21.044 6.2312 20.854 5.97115L15.1679 0.285055C14.9379 0.0950182 14.6628 0 14.3428 0H1.92037C1.38027 0 0.915176 0.190036 0.525102 0.57011C0.175034 0.930179 0 1.38027 0 1.92037V24.0796C0 24.6197 0.175034 25.0698 0.525102 25.4299C0.915176 25.81 1.38027 26 1.92037 26H19.2637C19.8038 26 20.2539 25.81 20.614 25.4299C20.994 25.0698 21.1841 24.6197 21.1841 24.0796V6.7363ZM14.4478 2.40045L18.7836 6.73629H14.4478V2.40045ZM13.4876 8.67168H19.2637V24.0796H1.92038V1.92038H12.5124V7.69649C12.5124 8.34662 12.8375 8.67168 13.4876 8.67168Z" fill="white"/>
<rect x="5" y="11" width="11" height="2" rx="1" fill="white"/>
<rect x="5" y="15" width="11" height="2" rx="1" fill="white"/>
<rect x="5" y="19" width="11" height="2" rx="1" fill="white"/>
</svg>
